<svg xmlns="http://www.w3.org/2000/svg" version="1.1" xmlns:xlink="http://www.w3.org/1999/xlink" xmlns:svgjs="http://svgjs.com/svgjs" width="1440" height="560" preserveAspectRatio="none" viewBox="0 0 1440 560"><g mask="url(&quot;#SvgjsMask1024&quot;)" fill="none"><rect width="1440" height="560" x="0" y="0" fill="rgba(98, 9, 255, 1)"></rect><path d="M 0,342 C 57.6,305.6 172.8,160.4 288,160 C 403.2,159.6 460.8,367.8 576,340 C 691.2,312.2 748.8,-18.4 864,21 C 979.2,60.4 1036.8,518.6 1152,537 C 1267.2,555.4 1382.4,197.8 1440,113L1440 560L0 560z" fill="#23a3e7"></path><path d="M 0,326 C 57.6,282.2 172.8,109.8 288,107 C 403.2,104.2 460.8,300.8 576,312 C 691.2,323.2 748.8,152.6 864,163 C 979.2,173.4 1036.8,383.2 1152,364 C 1267.2,344.8 1382.4,126.4 1440,67L1440 560L0 560z" fill="rgba(208, 171, 248, 1)"></path><path d="M 0,63 C 96,141.2 288,443 480,454 C 672,465 768,139.6 960,118 C 1152,96.4 1344,300.4 1440,346L1440 560L0 560z" fill="rgba(162, 67, 237, 1)"></path></g><defs><mask id="SvgjsMask1024"><rect width="1440" height="560" fill="#ffffff"></rect></mask></defs></svg>