<svg id="visual" viewBox="0 0 900 600" width="900" height="600" xmlns="http://www.w3.org/2000/svg" xmlns:xlink="http://www.w3.org/1999/xlink" version="1.1"><rect x="0" y="0" width="900" height="600" fill="#001220"></rect><defs><linearGradient id="grad1_0" x1="33.3%" y1="0%" x2="100%" y2="100%"><stop offset="20%" stop-color="#001220" stop-opacity="1"></stop><stop offset="80%" stop-color="#001220" stop-opacity="1"></stop></linearGradient></defs><defs><linearGradient id="grad2_0" x1="0%" y1="0%" x2="66.7%" y2="100%"><stop offset="20%" stop-color="#001220" stop-opacity="1"></stop><stop offset="80%" stop-color="#001220" stop-opacity="1"></stop></linearGradient></defs><g transform="translate(900, 0)"><path d="M0 486.7C-56 461.2 -112.1 435.6 -172.2 415.7C-232.4 395.9 -296.7 381.9 -344.2 344.2C-391.7 306.5 -422.5 245 -443.5 183.7C-464.4 122.4 -475.6 61.2 -486.7 0L0 0Z" fill="#FBAE3C"></path></g><g transform="translate(0, 600)"><path d="M0 -486.7C52.4 -453.1 104.8 -419.4 166.1 -401C227.4 -382.5 297.7 -379.3 344.2 -344.2C390.7 -309.1 413.5 -242.2 433.3 -179.5C453.1 -116.8 469.9 -58.4 486.7 0L0 0Z" fill="#FBAE3C"></path></g></svg>