<svg id="visual" viewBox="0 0 900 600" width="900" height="600" xmlns="http://www.w3.org/2000/svg" xmlns:xlink="http://www.w3.org/1999/xlink" version="1.1"><rect x="0" y="0" width="900" height="600" fill="#140021"></rect><path d="M0 283L60 283L60 289L120 289L120 328L180 328L180 248L240 248L240 318L300 318L300 345L360 345L360 240L420 240L420 330L480 330L480 294L540 294L540 291L600 291L600 270L660 270L660 261L720 261L720 297L780 297L780 271L840 271L840 307L900 307L900 344L900 601L900 601L840 601L840 601L780 601L780 601L720 601L720 601L660 601L660 601L600 601L600 601L540 601L540 601L480 601L480 601L420 601L420 601L360 601L360 601L300 601L300 601L240 601L240 601L180 601L180 601L120 601L120 601L60 601L60 601L0 601Z" fill="#9900ff"></path><path d="M0 337L60 337L60 369L120 369L120 372L180 372L180 392L240 392L240 302L300 302L300 309L360 309L360 305L420 305L420 375L480 375L480 398L540 398L540 383L600 383L600 397L660 397L660 333L720 333L720 371L780 371L780 335L840 335L840 388L900 388L900 378L900 601L900 601L840 601L840 601L780 601L780 601L720 601L720 601L660 601L660 601L600 601L600 601L540 601L540 601L480 601L480 601L420 601L420 601L360 601L360 601L300 601L300 601L240 601L240 601L180 601L180 601L120 601L120 601L60 601L60 601L0 601Z" fill="#8800e2"></path><path d="M0 365L60 365L60 423L120 423L120 424L180 424L180 378L240 378L240 439L300 439L300 441L360 441L360 424L420 424L420 416L480 416L480 410L540 410L540 455L600 455L600 411L660 411L660 377L720 377L720 431L780 431L780 387L840 387L840 368L900 368L900 448L900 601L900 601L840 601L840 601L780 601L780 601L720 601L720 601L660 601L660 601L600 601L600 601L540 601L540 601L480 601L480 601L420 601L420 601L360 601L360 601L300 601L300 601L240 601L240 601L180 601L180 601L120 601L120 601L60 601L60 601L0 601Z" fill="#7700c6"></path><path d="M0 496L60 496L60 475L120 475L120 463L180 463L180 475L240 475L240 507L300 507L300 451L360 451L360 505L420 505L420 446L480 446L480 508L540 508L540 453L600 453L600 497L660 497L660 445L720 445L720 444L780 444L780 448L840 448L840 472L900 472L900 489L900 601L900 601L840 601L840 601L780 601L780 601L720 601L720 601L660 601L660 601L600 601L600 601L540 601L540 601L480 601L480 601L420 601L420 601L360 601L360 601L300 601L300 601L240 601L240 601L180 601L180 601L120 601L120 601L60 601L60 601L0 601Z" fill="#6600ab"></path><path d="M0 517L60 517L60 522L120 522L120 516L180 516L180 561L240 561L240 563L300 563L300 526L360 526L360 549L420 549L420 552L480 552L480 552L540 552L540 524L600 524L600 561L660 561L660 547L720 547L720 530L780 530L780 533L840 533L840 557L900 557L900 543L900 601L900 601L840 601L840 601L780 601L780 601L720 601L720 601L660 601L660 601L600 601L600 601L540 601L540 601L480 601L480 601L420 601L420 601L360 601L360 601L300 601L300 601L240 601L240 601L180 601L180 601L120 601L120 601L60 601L60 601L0 601Z" fill="#560090"></path></svg>