<?xml version="1.0" standalone="no"?>
<!DOCTYPE svg PUBLIC "-//W3C//DTD SVG 20010904//EN"
 "http://www.w3.org/TR/2001/REC-SVG-20010904/DTD/svg10.dtd">
<svg version="1.0" xmlns="http://www.w3.org/2000/svg"
 width="500.000000pt" height="493.000000pt" viewBox="0 0 500.000000 493.000000"
 preserveAspectRatio="xMidYMid meet">

<g transform="translate(0.000000,493.000000) scale(0.100000,-0.100000)"
fill="#000000" stroke="none">
<path d="M3100 4440 c0 -5 7 -10 16 -10 8 0 12 5 9 10 -3 6 -10 10 -16 10 -5
0 -9 -4 -9 -10z"/>
<path d="M1900 3542 c-19 -9 -45 -32 -57 -51 -21 -30 -23 -46 -23 -147 l0
-113 33 -3 c32 -3 32 -3 32 -58 0 -55 0 -55 -32 -58 l-33 -3 0 -95 0 -94 35 0
35 0 0 -55 0 -55 -35 0 -35 0 0 -95 0 -95 35 0 34 0 3 -147 3 -148 540 0 540
0 3 148 3 147 34 0 35 0 0 94 0 95 -32 3 c-32 3 -33 4 -36 56 l-3 52 35 0 36
0 0 94 0 95 -32 3 c-32 3 -33 4 -36 56 l-3 52 36 0 37 0 -4 123 c-3 107 -6
126 -25 153 -46 65 -39 64 -590 64 -454 0 -501 -2 -533 -18z m1056 -34 c46
-25 64 -72 64 -167 l0 -81 -582 2 -583 3 -3 70 c-4 103 12 145 68 173 l45 23
480 -3 c430 -3 483 -5 511 -20z m-16 -343 l0 -55 -505 0 -505 0 0 55 0 55 505
0 505 0 0 -55z m80 -150 l0 -55 -585 0 -585 0 0 55 0 55 585 0 585 0 0 -55z
m-80 -150 l0 -55 -505 0 -505 0 0 55 0 55 505 0 505 0 0 -55z m80 -150 l0 -55
-585 0 -585 0 0 55 0 55 585 0 585 0 0 -55z m-80 -225 l0 -130 -505 0 -505 0
0 130 0 130 505 0 505 0 0 -130z"/>
<path d="M2250 3470 c0 -16 7 -20 35 -20 28 0 35 4 35 20 0 16 -7 20 -35 20
-28 0 -35 -4 -35 -20z"/>
<path d="M2550 3470 c0 -16 7 -20 35 -20 28 0 35 4 35 20 0 16 -7 20 -35 20
-28 0 -35 -4 -35 -20z"/>
<path d="M2100 3395 c0 -10 11 -15 35 -15 24 0 35 5 35 15 0 10 -11 15 -35 15
-24 0 -35 -5 -35 -15z"/>
<path d="M2400 3395 c0 -10 11 -15 35 -15 24 0 35 5 35 15 0 10 -11 15 -35 15
-24 0 -35 -5 -35 -15z"/>
<path d="M2700 3395 c0 -10 11 -15 35 -15 24 0 35 5 35 15 0 10 -11 15 -35 15
-24 0 -35 -5 -35 -15z"/>
<path d="M2250 3325 c0 -10 11 -15 35 -15 24 0 35 5 35 15 0 10 -11 15 -35 15
-24 0 -35 -5 -35 -15z"/>
<path d="M2550 3325 c0 -10 11 -15 35 -15 24 0 35 5 35 15 0 10 -11 15 -35 15
-24 0 -35 -5 -35 -15z"/>
<path d="M3056 1998 c-4 -16 -78 -460 -84 -505 -4 -29 -2 -33 20 -33 23 0 25
5 56 173 61 329 64 369 29 375 -9 2 -19 -2 -21 -10z"/>
<path d="M2013 1963 c-9 -22 22 -239 47 -338 28 -111 49 -149 82 -153 23 -3
30 3 46 35 10 21 24 79 31 128 7 50 16 113 21 140 5 28 12 85 15 128 l7 77
-30 0 c-35 0 -32 10 -57 -195 -23 -191 -27 -217 -36 -208 -12 12 -37 139 -55
272 -8 63 -17 119 -20 123 -9 14 -44 8 -51 -9z"/>
<path d="M2638 1973 c-17 -4 -18 -24 -18 -236 0 -128 4 -238 9 -245 5 -8 17
-12 27 -10 16 3 20 15 24 78 l5 75 48 3 48 3 40 -86 c28 -63 44 -85 56 -83 37
7 36 31 -5 117 l-41 84 16 60 c23 93 1 196 -50 227 -31 19 -112 26 -159 13z
m126 -66 c14 -10 20 -32 24 -85 6 -93 -10 -122 -68 -122 l-40 0 0 110 0 110
33 0 c18 0 41 -6 51 -13z"/>
<path d="M3203 1964 c-6 -17 25 -116 65 -204 21 -45 27 -76 31 -170 l6 -115
28 -3 27 -3 0 104 c0 93 3 113 29 173 49 119 75 200 68 217 -7 20 -46 23 -52
5 -25 -80 -70 -198 -75 -198 -5 0 -50 118 -75 198 -6 18 -45 15 -52 -4z"/>
<path d="M3552 1958 c-20 -14 -36 -36 -41 -58 -13 -46 1 -348 17 -377 26 -48
87 -67 134 -42 38 20 48 68 48 231 0 171 -9 218 -47 248 -34 26 -70 25 -111
-2z m79 -54 c18 -22 26 -273 10 -332 -15 -53 -37 -53 -64 -2 -16 30 -18 54
-14 172 3 116 6 141 22 158 22 24 29 25 46 4z"/>
<path d="M918 1963 c-37 -6 -41 -50 -5 -55 22 -3 22 -5 25 -186 2 -156 0 -183
-13 -188 -8 -4 -15 -17 -15 -30 0 -24 2 -24 93 -24 118 0 130 9 147 110 9 52
9 95 1 166 -11 102 -32 156 -72 186 -25 18 -112 30 -161 21z m129 -68 c28 -19
40 -64 48 -181 11 -144 -12 -196 -82 -182 -16 3 -18 18 -21 178 -1 96 0 180 2
187 7 17 27 16 53 -2z"/>
<path d="M1526 1893 c-3 -43 -7 -152 -8 -243 l-2 -165 38 -6 c21 -3 69 -4 107
-1 64 4 69 6 69 28 0 23 -3 24 -75 24 l-75 0 0 220 0 220 -24 0 c-22 0 -24 -4
-30 -77z"/>
<path d="M1754 1955 c-9 -23 5 -35 42 -35 l34 0 0 -189 0 -188 -41 -7 c-34 -6
-40 -10 -37 -29 3 -21 7 -22 108 -21 96 1 105 3 105 20 0 14 -9 20 -35 24
l-35 5 -3 187 -2 187 27 3 c22 2 29 9 31 31 l3 27 -96 0 c-74 0 -97 -3 -101
-15z"/>
<path d="M3767 1963 c-12 -11 -8 -329 5 -383 16 -71 54 -102 117 -98 39 3 49
8 68 37 22 33 23 42 23 238 0 176 -2 204 -16 210 -33 12 -39 -15 -44 -207 -3
-121 -9 -193 -17 -201 -18 -18 -45 -6 -64 31 -16 30 -19 58 -19 192 0 86 -3
163 -6 172 -6 16 -35 22 -47 9z"/>
<path d="M1220 1730 c0 -210 2 -231 18 -238 9 -3 55 -7 102 -7 l85 0 3 28 3
27 -75 0 -76 0 0 54 c0 30 4 58 10 61 5 3 32 9 61 12 59 7 86 27 68 50 -7 8
-23 12 -38 9 -14 -3 -43 -7 -64 -11 l-38 -6 3 98 3 98 75 5 c41 3 74 8 73 13
-2 4 -3 14 -3 22 0 12 -18 15 -105 15 l-105 0 0 -230z"/>
<path d="M2328 1728 c2 -128 6 -235 7 -237 2 -2 44 -6 92 -8 73 -5 91 -3 102
11 27 32 6 46 -69 46 l-70 0 0 55 c0 50 2 56 26 65 14 6 40 10 57 10 41 0 60
13 55 36 -4 20 -15 22 -89 10 l-46 -7 -6 93 c-2 51 -3 96 0 101 2 4 38 7 79 7
72 0 74 1 74 25 l0 25 -107 0 -108 0 3 -232z"/>
</g>
</svg>
