<?xml version="1.0" encoding="UTF-8" standalone="no"?><svg id="visual" viewBox="0 0 900 600" width="900" height="600" xmlns="http://www.w3.org/2000/svg" xmlns:xlink="http://www.w3.org/1999/xlink" version="1.1"><g stroke-width="1" stroke-linejoin="bevel"><path d="M467 334L384 307L472 379Z" fill="#4d24cf" stroke="#4d24cf"></path><path d="M384 307L397 425L472 379Z" fill="#6600ff" stroke="#6600ff"></path><path d="M384 307L319 371L397 425Z" fill="#312a5d" stroke="#312a5d"></path><path d="M384 307L329 303L319 371Z" fill="#3e2b9e" stroke="#3e2b9e"></path><path d="M329 487L428 472L397 425Z" fill="#372c7d" stroke="#372c7d"></path><path d="M397 425L428 472L472 379Z" fill="#4728be" stroke="#4728be"></path><path d="M319 371L329 487L397 425Z" fill="#342b6d" stroke="#342b6d"></path><path d="M435 600L464 519L428 472Z" fill="#4d24cf" stroke="#4d24cf"></path><path d="M428 472L464 519L472 379Z" fill="#372c7d" stroke="#372c7d"></path><path d="M625 226L462 204L467 334Z" fill="#5d15ef" stroke="#5d15ef"></path><path d="M467 334L462 204L384 307Z" fill="#372c7d" stroke="#372c7d"></path><path d="M384 307L310 201L329 303Z" fill="#372c7d" stroke="#372c7d"></path><path d="M416 171L310 201L384 307Z" fill="#422aae" stroke="#422aae"></path><path d="M329 303L200 315L319 371Z" fill="#551fdf" stroke="#551fdf"></path><path d="M462 204L416 171L384 307Z" fill="#4d24cf" stroke="#4d24cf"></path><path d="M464 519L613 428L472 379Z" fill="#6600ff" stroke="#6600ff"></path><path d="M472 379L637 326L467 334Z" fill="#342b6d" stroke="#342b6d"></path><path d="M310 201L200 315L329 303Z" fill="#3e2b9e" stroke="#3e2b9e"></path><path d="M319 371L179 374L329 487Z" fill="#372c7d" stroke="#372c7d"></path><path d="M613 428L637 326L472 379Z" fill="#422aae" stroke="#422aae"></path><path d="M494 78L397 129L416 171Z" fill="#342b6d" stroke="#342b6d"></path><path d="M200 315L179 374L319 371Z" fill="#342b6d" stroke="#342b6d"></path><path d="M494 78L416 171L462 204Z" fill="#3e2b9e" stroke="#3e2b9e"></path><path d="M416 171L397 129L310 201Z" fill="#422aae" stroke="#422aae"></path><path d="M464 519L625 467L613 428Z" fill="#3a2c8d" stroke="#3a2c8d"></path><path d="M683 361L675 338L637 326Z" fill="#312a5d" stroke="#312a5d"></path><path d="M329 487L435 600L428 472Z" fill="#4728be" stroke="#4728be"></path><path d="M464 519L566 600L625 467Z" fill="#4d24cf" stroke="#4d24cf"></path><path d="M265 600L435 600L329 487Z" fill="#5d15ef" stroke="#5d15ef"></path><path d="M637 326L625 226L467 334Z" fill="#6600ff" stroke="#6600ff"></path><path d="M397 129L289 129L310 201Z" fill="#6600ff" stroke="#6600ff"></path><path d="M310 201L174 233L200 315Z" fill="#3e2b9e" stroke="#3e2b9e"></path><path d="M683 361L637 326L613 428Z" fill="#312a5d" stroke="#312a5d"></path><path d="M637 326L717 219L625 226Z" fill="#3e2b9e" stroke="#3e2b9e"></path><path d="M435 600L535 600L464 519Z" fill="#6600ff" stroke="#6600ff"></path><path d="M289 129L174 233L310 201Z" fill="#312a5d" stroke="#312a5d"></path><path d="M200 315L136 313L179 374Z" fill="#551fdf" stroke="#551fdf"></path><path d="M625 467L683 361L613 428Z" fill="#4728be" stroke="#4728be"></path><path d="M127 433L182 513L179 374Z" fill="#342b6d" stroke="#342b6d"></path><path d="M179 374L182 513L329 487Z" fill="#422aae" stroke="#422aae"></path><path d="M182 513L265 600L329 487Z" fill="#422aae" stroke="#422aae"></path><path d="M174 233L136 313L200 315Z" fill="#6600ff" stroke="#6600ff"></path><path d="M535 600L566 600L464 519Z" fill="#342b6d" stroke="#342b6d"></path><path d="M625 467L712 529L683 361Z" fill="#4d24cf" stroke="#4d24cf"></path><path d="M136 313L127 433L179 374Z" fill="#6600ff" stroke="#6600ff"></path><path d="M612 93L494 78L462 204Z" fill="#372c7d" stroke="#372c7d"></path><path d="M295 0L237 70L289 129Z" fill="#551fdf" stroke="#551fdf"></path><path d="M75 600L119 507L0 469Z" fill="#4728be" stroke="#4728be"></path><path d="M127 433L119 507L182 513Z" fill="#3a2c8d" stroke="#3a2c8d"></path><path d="M182 513L169 600L265 600Z" fill="#3a2c8d" stroke="#3a2c8d"></path><path d="M693 106L612 93L625 226Z" fill="#342b6d" stroke="#342b6d"></path><path d="M625 226L612 93L462 204Z" fill="#3a2c8d" stroke="#3a2c8d"></path><path d="M717 219L637 326L675 338Z" fill="#5d15ef" stroke="#5d15ef"></path><path d="M797 307L717 219L675 338Z" fill="#3a2c8d" stroke="#3a2c8d"></path><path d="M119 507L169 600L182 513Z" fill="#4728be" stroke="#4728be"></path><path d="M373 0L289 129L397 129Z" fill="#3e2b9e" stroke="#3e2b9e"></path><path d="M289 129L237 70L174 233Z" fill="#422aae" stroke="#422aae"></path><path d="M174 233L94 210L136 313Z" fill="#342b6d" stroke="#342b6d"></path><path d="M668 600L712 529L625 467Z" fill="#372c7d" stroke="#372c7d"></path><path d="M683 361L797 307L675 338Z" fill="#312a5d" stroke="#312a5d"></path><path d="M566 600L668 600L625 467Z" fill="#4d24cf" stroke="#4d24cf"></path><path d="M112 72L94 210L174 233Z" fill="#6600ff" stroke="#6600ff"></path><path d="M136 313L0 380L127 433Z" fill="#5d15ef" stroke="#5d15ef"></path><path d="M475 0L373 0L494 78Z" fill="#312a5d" stroke="#312a5d"></path><path d="M494 78L373 0L397 129Z" fill="#342b6d" stroke="#342b6d"></path><path d="M620 0L475 0L494 78Z" fill="#4728be" stroke="#4728be"></path><path d="M788 510L788 368L683 361Z" fill="#312a5d" stroke="#312a5d"></path><path d="M717 219L693 106L625 226Z" fill="#422aae" stroke="#422aae"></path><path d="M612 93L620 0L494 78Z" fill="#4d24cf" stroke="#4d24cf"></path><path d="M777 199L693 106L717 219Z" fill="#372c7d" stroke="#372c7d"></path><path d="M373 0L295 0L289 129Z" fill="#422aae" stroke="#422aae"></path><path d="M237 70L112 72L174 233Z" fill="#6600ff" stroke="#6600ff"></path><path d="M788 368L797 307L683 361Z" fill="#3a2c8d" stroke="#3a2c8d"></path><path d="M797 307L777 199L717 219Z" fill="#372c7d" stroke="#372c7d"></path><path d="M834 600L788 510L712 529Z" fill="#422aae" stroke="#422aae"></path><path d="M712 529L788 510L683 361Z" fill="#372c7d" stroke="#372c7d"></path><path d="M788 368L900 339L797 307Z" fill="#5d15ef" stroke="#5d15ef"></path><path d="M0 469L119 507L127 433Z" fill="#422aae" stroke="#422aae"></path><path d="M119 507L75 600L169 600Z" fill="#3e2b9e" stroke="#3e2b9e"></path><path d="M0 330L0 380L136 313Z" fill="#4728be" stroke="#4728be"></path><path d="M94 210L0 330L136 313Z" fill="#5d15ef" stroke="#5d15ef"></path><path d="M173 0L112 72L237 70Z" fill="#342b6d" stroke="#342b6d"></path><path d="M94 210L0 227L0 330Z" fill="#372c7d" stroke="#372c7d"></path><path d="M737 0L620 0L693 106Z" fill="#372c7d" stroke="#372c7d"></path><path d="M693 106L620 0L612 93Z" fill="#422aae" stroke="#422aae"></path><path d="M0 380L0 469L127 433Z" fill="#4d24cf" stroke="#4d24cf"></path><path d="M0 60L0 227L94 210Z" fill="#3e2b9e" stroke="#3e2b9e"></path><path d="M295 0L173 0L237 70Z" fill="#3e2b9e" stroke="#3e2b9e"></path><path d="M173 0L119 0L112 72Z" fill="#372c7d" stroke="#372c7d"></path><path d="M112 72L0 60L94 210Z" fill="#4728be" stroke="#4728be"></path><path d="M900 105L782 71L777 199Z" fill="#312a5d" stroke="#312a5d"></path><path d="M777 199L782 71L693 106Z" fill="#3e2b9e" stroke="#3e2b9e"></path><path d="M0 469L0 600L75 600Z" fill="#422aae" stroke="#422aae"></path><path d="M668 600L834 600L712 529Z" fill="#312a5d" stroke="#312a5d"></path><path d="M788 510L900 371L788 368Z" fill="#4728be" stroke="#4728be"></path><path d="M797 307L900 227L777 199Z" fill="#372c7d" stroke="#372c7d"></path><path d="M782 71L737 0L693 106Z" fill="#312a5d" stroke="#312a5d"></path><path d="M900 532L900 371L788 510Z" fill="#372c7d" stroke="#372c7d"></path><path d="M900 371L900 339L788 368Z" fill="#3e2b9e" stroke="#3e2b9e"></path><path d="M900 339L900 227L797 307Z" fill="#3e2b9e" stroke="#3e2b9e"></path><path d="M782 71L789 0L737 0Z" fill="#3e2b9e" stroke="#3e2b9e"></path><path d="M119 0L0 60L112 72Z" fill="#551fdf" stroke="#551fdf"></path><path d="M834 600L900 532L788 510Z" fill="#551fdf" stroke="#551fdf"></path><path d="M900 0L789 0L782 71Z" fill="#5d15ef" stroke="#5d15ef"></path><path d="M834 600L900 600L900 532Z" fill="#422aae" stroke="#422aae"></path><path d="M119 0L0 0L0 60Z" fill="#4728be" stroke="#4728be"></path><path d="M900 227L900 105L777 199Z" fill="#6600ff" stroke="#6600ff"></path><path d="M900 105L900 0L782 71Z" fill="#551fdf" stroke="#551fdf"></path></g></svg>