<?xml version="1.0" encoding="UTF-8" standalone="no" ?>
<!DOCTYPE svg PUBLIC "-//W3C//DTD SVG 1.1//EN" "http://www.w3.org/Graphics/SVG/1.1/DTD/svg11.dtd">
<svg xmlns="http://www.w3.org/2000/svg" xmlns:xlink="http://www.w3.org/1999/xlink" version="1.1" width="1080" height="1080" viewBox="0 0 1080 1080" xml:space="preserve">
<desc>Created with Fabric.js 5.2.4</desc>
<defs>
</defs>
<g transform="matrix(1 0 0 1 540 540)" id="373f18f7-9103-4e77-9945-18303826da23"  >
<rect style="stroke: none; stroke-width: 1; stroke-dasharray: none; stroke-linecap: butt; stroke-dashoffset: 0; stroke-linejoin: miter; stroke-miterlimit: 4; fill: rgb(255,255,255); fill-rule: nonzero; opacity: 1; visibility: hidden;" vector-effect="non-scaling-stroke"  x="-540" y="-540" rx="0" ry="0" width="1080" height="1080" />
</g>
<g transform="matrix(1 0 0 1 540 540)" id="aa4db0b6-bec8-492b-9004-81c3dd3f8bae"  >
</g>
<g transform="matrix(2.41 0 0 2.41 540 423.59)"  >
<g style="" vector-effect="non-scaling-stroke"   >
		<g transform="matrix(0.13 0 0 -0.13 90.53 -198)"  >
<path style="stroke: none; stroke-width: 1; stroke-dasharray: none; stroke-linecap: butt; stroke-dashoffset: 0; stroke-linejoin: miter; stroke-miterlimit: 4; fill: rgb(0,0,0); fill-rule: nonzero; opacity: 1;" vector-effect="non-scaling-stroke"  transform=" translate(-3113, -4440)" d="M 3100 4440 C 3100 4435 3107 4430 3116 4430 C 3124 4430 3128 4435 3125 4440 C 3122 4446 3115 4450 3109 4450 C 3104 4450 3100 4446 3100 4440 z" stroke-linecap="round" />
</g>
		<g transform="matrix(0.13 0 0 -0.13 0.27 1.67)"  >
<path style="stroke: none; stroke-width: 1; stroke-dasharray: none; stroke-linecap: butt; stroke-dashoffset: 0; stroke-linejoin: miter; stroke-miterlimit: 4; fill: rgb(0,0,0); fill-rule: nonzero; opacity: 1;" vector-effect="non-scaling-stroke"  transform=" translate(-2436, -2942.5)" d="M 1900 3542 C 1881 3533 1855 3510 1843 3491 C 1822 3461 1820 3445 1820 3344 L 1820 3231 L 1853 3228 C 1885 3225 1885 3225 1885 3170 C 1885 3115 1885 3115 1853 3112 L 1820 3109 L 1820 3014 L 1820 2920 L 1855 2920 L 1890 2920 L 1890 2865 L 1890 2810 L 1855 2810 L 1820 2810 L 1820 2715 L 1820 2620 L 1855 2620 L 1889 2620 L 1892 2473 L 1895 2325 L 2435 2325 L 2975 2325 L 2978 2473 L 2981 2620 L 3015 2620 L 3050 2620 L 3050 2714 L 3050 2809 L 3018 2812 C 2986 2815 2985 2816 2982 2868 L 2979 2920 L 3014 2920 L 3050 2920 L 3050 3014 L 3050 3109 L 3018 3112 C 2986 3115 2985 3116 2982 3168 L 2979 3220 L 3015 3220 L 3052 3220 L 3048 3343 C 3045 3450 3042 3469 3023 3496 C 2977 3561 2984 3560 2433 3560 C 1979 3560 1932 3558 1900 3542 z M 2956 3508 C 3002 3483 3020 3436 3020 3341 L 3020 3260 L 2438 3262 L 1855 3265 L 1852 3335 C 1848 3438 1864 3480 1920 3508 L 1965 3531 L 2445 3528 C 2875 3525 2928 3523 2956 3508 z M 2940 3165 L 2940 3110 L 2435 3110 L 1930 3110 L 1930 3165 L 1930 3220 L 2435 3220 L 2940 3220 L 2940 3165 z M 3020 3015 L 3020 2960 L 2435 2960 L 1850 2960 L 1850 3015 L 1850 3070 L 2435 3070 L 3020 3070 L 3020 3015 z M 2940 2865 L 2940 2810 L 2435 2810 L 1930 2810 L 1930 2865 L 1930 2920 L 2435 2920 L 2940 2920 L 2940 2865 z M 3020 2715 L 3020 2660 L 2435 2660 L 1850 2660 L 1850 2715 L 1850 2770 L 2435 2770 L 3020 2770 L 3020 2715 z M 2940 2490 L 2940 2360 L 2435 2360 L 1930 2360 L 1930 2490 L 1930 2620 L 2435 2620 L 2940 2620 L 2940 2490 z" stroke-linecap="round" />
</g>
		<g transform="matrix(0.13 0 0 -0.13 -19.87 -68.67)"  >
<path style="stroke: none; stroke-width: 1; stroke-dasharray: none; stroke-linecap: butt; stroke-dashoffset: 0; stroke-linejoin: miter; stroke-miterlimit: 4; fill: rgb(0,0,0); fill-rule: nonzero; opacity: 1;" vector-effect="non-scaling-stroke"  transform=" translate(-2285, -3470)" d="M 2250 3470 C 2250 3454 2257 3450 2285 3450 C 2313 3450 2320 3454 2320 3470 C 2320 3486 2313 3490 2285 3490 C 2257 3490 2250 3486 2250 3470 z" stroke-linecap="round" />
</g>
		<g transform="matrix(0.13 0 0 -0.13 20.13 -68.67)"  >
<path style="stroke: none; stroke-width: 1; stroke-dasharray: none; stroke-linecap: butt; stroke-dashoffset: 0; stroke-linejoin: miter; stroke-miterlimit: 4; fill: rgb(0,0,0); fill-rule: nonzero; opacity: 1;" vector-effect="non-scaling-stroke"  transform=" translate(-2585, -3470)" d="M 2550 3470 C 2550 3454 2557 3450 2585 3450 C 2613 3450 2620 3454 2620 3470 C 2620 3486 2613 3490 2585 3490 C 2557 3490 2550 3486 2550 3470 z" stroke-linecap="round" />
</g>
		<g transform="matrix(0.13 0 0 -0.13 -39.87 -58.67)"  >
<path style="stroke: none; stroke-width: 1; stroke-dasharray: none; stroke-linecap: butt; stroke-dashoffset: 0; stroke-linejoin: miter; stroke-miterlimit: 4; fill: rgb(0,0,0); fill-rule: nonzero; opacity: 1;" vector-effect="non-scaling-stroke"  transform=" translate(-2135, -3395)" d="M 2100 3395 C 2100 3385 2111 3380 2135 3380 C 2159 3380 2170 3385 2170 3395 C 2170 3405 2159 3410 2135 3410 C 2111 3410 2100 3405 2100 3395 z" stroke-linecap="round" />
</g>
		<g transform="matrix(0.13 0 0 -0.13 0.13 -58.67)"  >
<path style="stroke: none; stroke-width: 1; stroke-dasharray: none; stroke-linecap: butt; stroke-dashoffset: 0; stroke-linejoin: miter; stroke-miterlimit: 4; fill: rgb(0,0,0); fill-rule: nonzero; opacity: 1;" vector-effect="non-scaling-stroke"  transform=" translate(-2435, -3395)" d="M 2400 3395 C 2400 3385 2411 3380 2435 3380 C 2459 3380 2470 3385 2470 3395 C 2470 3405 2459 3410 2435 3410 C 2411 3410 2400 3405 2400 3395 z" stroke-linecap="round" />
</g>
		<g transform="matrix(0.13 0 0 -0.13 40.13 -58.67)"  >
<path style="stroke: none; stroke-width: 1; stroke-dasharray: none; stroke-linecap: butt; stroke-dashoffset: 0; stroke-linejoin: miter; stroke-miterlimit: 4; fill: rgb(0,0,0); fill-rule: nonzero; opacity: 1;" vector-effect="non-scaling-stroke"  transform=" translate(-2735, -3395)" d="M 2700 3395 C 2700 3385 2711 3380 2735 3380 C 2759 3380 2770 3385 2770 3395 C 2770 3405 2759 3410 2735 3410 C 2711 3410 2700 3405 2700 3395 z" stroke-linecap="round" />
</g>
		<g transform="matrix(0.13 0 0 -0.13 -19.87 -49.33)"  >
<path style="stroke: none; stroke-width: 1; stroke-dasharray: none; stroke-linecap: butt; stroke-dashoffset: 0; stroke-linejoin: miter; stroke-miterlimit: 4; fill: rgb(0,0,0); fill-rule: nonzero; opacity: 1;" vector-effect="non-scaling-stroke"  transform=" translate(-2285, -3325)" d="M 2250 3325 C 2250 3315 2261 3310 2285 3310 C 2309 3310 2320 3315 2320 3325 C 2320 3335 2309 3340 2285 3340 C 2261 3340 2250 3335 2250 3325 z" stroke-linecap="round" />
</g>
		<g transform="matrix(0.13 0 0 -0.13 20.13 -49.33)"  >
<path style="stroke: none; stroke-width: 1; stroke-dasharray: none; stroke-linecap: butt; stroke-dashoffset: 0; stroke-linejoin: miter; stroke-miterlimit: 4; fill: rgb(0,0,0); fill-rule: nonzero; opacity: 1;" vector-effect="non-scaling-stroke"  transform=" translate(-2585, -3325)" d="M 2550 3325 C 2550 3315 2561 3310 2585 3310 C 2609 3310 2620 3315 2620 3325 C 2620 3335 2609 3340 2585 3340 C 2561 3340 2550 3335 2550 3325 z" stroke-linecap="round" />
</g>
		<g transform="matrix(0.13 0 0 -0.13 80.12 162.77)"  >
<path style="stroke: none; stroke-width: 1; stroke-dasharray: none; stroke-linecap: butt; stroke-dashoffset: 0; stroke-linejoin: miter; stroke-miterlimit: 4; fill: rgb(0,0,0); fill-rule: nonzero; opacity: 1;" vector-effect="non-scaling-stroke"  transform=" translate(-3034.93, -1734.25)" d="M 3056 1998 C 3052 1982 2978 1538 2972 1493 C 2968 1464 2970 1460 2992 1460 C 3015 1460 3017 1465 3048 1633 C 3109 1962 3112 2002 3077 2008 C 3068 2010 3058 2006 3056 1998 z" stroke-linecap="round" />
</g>
		<g transform="matrix(0.13 0 0 -0.13 -39.64 163.91)"  >
<path style="stroke: none; stroke-width: 1; stroke-dasharray: none; stroke-linecap: butt; stroke-dashoffset: 0; stroke-linejoin: miter; stroke-miterlimit: 4; fill: rgb(0,0,0); fill-rule: nonzero; opacity: 1;" vector-effect="non-scaling-stroke"  transform=" translate(-2136.7, -1725.7)" d="M 2013 1963 C 2004 1941 2035 1724 2060 1625 C 2088 1514 2109 1476 2142 1472 C 2165 1469 2172 1475 2188 1507 C 2198 1528 2212 1586 2219 1635 C 2226 1685 2235 1748 2240 1775 C 2245 1803 2252 1860 2255 1903 L 2262 1980 L 2232 1980 C 2197 1980 2200 1990 2175 1785 C 2152 1594 2148 1568 2139 1577 C 2127 1589 2102 1716 2084 1849 C 2076 1912 2067 1968 2064 1972 C 2055 1986 2020 1980 2013 1963 z" stroke-linecap="round" />
</g>
		<g transform="matrix(0.13 0 0 -0.13 43.72 163.9)"  >
<path style="stroke: none; stroke-width: 1; stroke-dasharray: none; stroke-linecap: butt; stroke-dashoffset: 0; stroke-linejoin: miter; stroke-miterlimit: 4; fill: rgb(0,0,0); fill-rule: nonzero; opacity: 1;" vector-effect="non-scaling-stroke"  transform=" translate(-2761.9, -1725.76)" d="M 2638 1973 C 2621 1969 2620 1949 2620 1737 C 2620 1609 2624 1499 2629 1492 C 2634 1484 2646 1480 2656 1482 C 2672 1485 2676 1497 2680 1560 L 2685 1635 L 2733 1638 L 2781 1641 L 2821 1555 C 2849 1492 2865 1470 2877 1472 C 2914 1479 2913 1503 2872 1589 L 2831 1673 L 2847 1733 C 2870 1826 2848 1929 2797 1960 C 2766 1979 2685 1986 2638 1973 z M 2764 1907 C 2778 1897 2784 1875 2788 1822 C 2794 1729 2778 1700 2720 1700 L 2680 1700 L 2680 1810 L 2680 1920 L 2713 1920 C 2731 1920 2754 1914 2764 1907 z" stroke-linecap="round" />
</g>
		<g transform="matrix(0.13 0 0 -0.13 119.49 164.07)"  >
<path style="stroke: none; stroke-width: 1; stroke-dasharray: none; stroke-linecap: butt; stroke-dashoffset: 0; stroke-linejoin: miter; stroke-miterlimit: 4; fill: rgb(0,0,0); fill-rule: nonzero; opacity: 1;" vector-effect="non-scaling-stroke"  transform=" translate(-3330.19, -1724.5)" d="M 3203 1964 C 3197 1947 3228 1848 3268 1760 C 3289 1715 3295 1684 3299 1590 L 3305 1475 L 3333 1472 L 3360 1469 L 3360 1573 C 3360 1666 3363 1686 3389 1746 C 3438 1865 3464 1946 3457 1963 C 3450 1983 3411 1986 3405 1968 C 3380 1888 3335 1770 3330 1770 C 3325 1770 3280 1888 3255 1968 C 3249 1986 3210 1983 3203 1964 z" stroke-linecap="round" />
</g>
		<g transform="matrix(0.13 0 0 -0.13 156.52 164.08)"  >
<path style="stroke: none; stroke-width: 1; stroke-dasharray: none; stroke-linecap: butt; stroke-dashoffset: 0; stroke-linejoin: miter; stroke-miterlimit: 4; fill: rgb(0,0,0); fill-rule: nonzero; opacity: 1;" vector-effect="non-scaling-stroke"  transform=" translate(-3607.94, -1724.43)" d="M 3552 1958 C 3532 1944 3516 1922 3511 1900 C 3498 1854 3512 1552 3528 1523 C 3554 1475 3615 1456 3662 1481 C 3700 1501 3710 1549 3710 1712 C 3710 1883 3701 1930 3663 1960 C 3629 1986 3593 1985 3552 1958 z M 3631 1904 C 3649 1882 3657 1631 3641 1572 C 3626 1519 3604 1519 3577 1570 C 3561 1600 3559 1624 3563 1742 C 3566 1858 3569 1883 3585 1900 C 3607 1924 3614 1925 3631 1904 z" stroke-linecap="round" />
</g>
		<g transform="matrix(0.13 0 0 -0.13 -188.21 164.26)"  >
<path style="stroke: none; stroke-width: 1; stroke-dasharray: none; stroke-linecap: butt; stroke-dashoffset: 0; stroke-linejoin: miter; stroke-miterlimit: 4; fill: rgb(0,0,0); fill-rule: nonzero; opacity: 1;" vector-effect="non-scaling-stroke"  transform=" translate(-1022.45, -1723.03)" d="M 918 1963 C 881 1957 877 1913 913 1908 C 935 1905 935 1903 938 1722 C 940 1566 938 1539 925 1534 C 917 1530 910 1517 910 1504 C 910 1480 912 1480 1003 1480 C 1121 1480 1133 1489 1150 1590 C 1159 1642 1159 1685 1151 1756 C 1140 1858 1119 1912 1079 1942 C 1054 1960 967 1972 918 1963 z M 1047 1895 C 1075 1876 1087 1831 1095 1714 C 1106 1570 1083 1518 1013 1532 C 997 1535 995 1550 992 1710 C 991 1806 992 1890 994 1897 C 1001 1914 1021 1913 1047 1895 z" stroke-linecap="round" />
</g>
		<g transform="matrix(0.13 0 0 -0.13 -108.13 164.25)"  >
<path style="stroke: none; stroke-width: 1; stroke-dasharray: none; stroke-linecap: butt; stroke-dashoffset: 0; stroke-linejoin: miter; stroke-miterlimit: 4; fill: rgb(0,0,0); fill-rule: nonzero; opacity: 1;" vector-effect="non-scaling-stroke"  transform=" translate(-1623, -1723.09)" d="M 1526 1893 C 1523 1850 1519 1741 1518 1650 L 1516 1485 L 1554 1479 C 1575 1476 1623 1475 1661 1478 C 1725 1482 1730 1484 1730 1506 C 1730 1529 1727 1530 1655 1530 L 1580 1530 L 1580 1750 L 1580 1970 L 1556 1970 C 1534 1970 1532 1966 1526 1893 z" stroke-linecap="round" />
</g>
		<g transform="matrix(0.13 0 0 -0.13 -76.78 163.62)"  >
<path style="stroke: none; stroke-width: 1; stroke-dasharray: none; stroke-linecap: butt; stroke-dashoffset: 0; stroke-linejoin: miter; stroke-miterlimit: 4; fill: rgb(0,0,0); fill-rule: nonzero; opacity: 1;" vector-effect="non-scaling-stroke"  transform=" translate(-1858.16, -1727.87)" d="M 1754 1955 C 1745 1932 1759 1920 1796 1920 L 1830 1920 L 1830 1731 L 1830 1543 L 1789 1536 C 1755 1530 1749 1526 1752 1507 C 1755 1486 1759 1485 1860 1486 C 1956 1487 1965 1489 1965 1506 C 1965 1520 1956 1526 1930 1530 L 1895 1535 L 1892 1722 L 1890 1909 L 1917 1912 C 1939 1914 1946 1921 1948 1943 L 1951 1970 L 1855 1970 C 1781 1970 1758 1967 1754 1955 z" stroke-linecap="round" />
</g>
		<g transform="matrix(0.13 0 0 -0.13 191.45 163.88)"  >
<path style="stroke: none; stroke-width: 1; stroke-dasharray: none; stroke-linecap: butt; stroke-dashoffset: 0; stroke-linejoin: miter; stroke-miterlimit: 4; fill: rgb(0,0,0); fill-rule: nonzero; opacity: 1;" vector-effect="non-scaling-stroke"  transform=" translate(-3869.91, -1725.87)" d="M 3767 1963 C 3755 1952 3759 1634 3772 1580 C 3788 1509 3826 1478 3889 1482 C 3928 1485 3938 1490 3957 1519 C 3979 1552 3980 1561 3980 1757 C 3980 1933 3978 1961 3964 1967 C 3931 1979 3925 1952 3920 1760 C 3917 1639 3911 1567 3903 1559 C 3885 1541 3858 1553 3839 1590 C 3823 1620 3820 1648 3820 1782 C 3820 1868 3817 1945 3814 1954 C 3808 1970 3779 1976 3767 1963 z" stroke-linecap="round" />
</g>
		<g transform="matrix(0.13 0 0 -0.13 -147.67 164.33)"  >
<path style="stroke: none; stroke-width: 1; stroke-dasharray: none; stroke-linecap: butt; stroke-dashoffset: 0; stroke-linejoin: miter; stroke-miterlimit: 4; fill: rgb(0,0,0); fill-rule: nonzero; opacity: 1;" vector-effect="non-scaling-stroke"  transform=" translate(-1326.51, -1722.5)" d="M 1220 1730 C 1220 1520 1222 1499 1238 1492 C 1247 1489 1293 1485 1340 1485 L 1425 1485 L 1428 1513 L 1431 1540 L 1356 1540 L 1280 1540 L 1280 1594 C 1280 1624 1284 1652 1290 1655 C 1295 1658 1322 1664 1351 1667 C 1410 1674 1437 1694 1419 1717 C 1412 1725 1396 1729 1381 1726 C 1367 1723 1338 1719 1317 1715 L 1279 1709 L 1282 1807 L 1285 1905 L 1360 1910 C 1401 1913 1434 1918 1433 1923 C 1431 1927 1430 1937 1430 1945 C 1430 1957 1412 1960 1325 1960 L 1220 1960 L 1220 1730 z" stroke-linecap="round" />
</g>
		<g transform="matrix(0.13 0 0 -0.13 -0.18 164.63)"  >
<path style="stroke: none; stroke-width: 1; stroke-dasharray: none; stroke-linecap: butt; stroke-dashoffset: 0; stroke-linejoin: miter; stroke-miterlimit: 4; fill: rgb(0,0,0); fill-rule: nonzero; opacity: 1;" vector-effect="non-scaling-stroke"  transform=" translate(-2432.63, -1720.26)" d="M 2328 1728 C 2330 1600 2334 1493 2335 1491 C 2337 1489 2379 1485 2427 1483 C 2500 1478 2518 1480 2529 1494 C 2556 1526 2535 1540 2460 1540 L 2390 1540 L 2390 1595 C 2390 1645 2392 1651 2416 1660 C 2430 1666 2456 1670 2473 1670 C 2514 1670 2533 1683 2528 1706 C 2524 1726 2513 1728 2439 1716 L 2393 1709 L 2387 1802 C 2385 1853 2384 1898 2387 1903 C 2389 1907 2425 1910 2466 1910 C 2538 1910 2540 1911 2540 1935 L 2540 1960 L 2433 1960 L 2325 1960 L 2328 1728 z" stroke-linecap="round" />
</g>
</g>
</g>
</svg>